<svg xmlns="http://www.w3.org/2000/svg" width="1710" height="838" viewBox="44.19 -7 1710 838">
<title>Sagitech Spine logo</title>
<rect x="44.19" y="-7" width="1710" height="838" fill="#044069"/>
<path fill="#fdfcfd" d="M277.66 417.8C276.48 417.42 274.81 416.44 272.75 414.92C271.47 413.98 268.71 412.07 266.62 410.69C259.63 406.08 258.99 405.35 258.82 401.77C258.69 399.11 258.9 398.63 261.5 395.53C264.91 391.49 271.19 383.41 273.97 379.5C276.69 375.68 279.28 373.81 281.85 373.81C283.59 373.81 285.56 374.79 287.84 376.77C289.94 378.6 291.92 380 295.17 381.95C298.63 384.03 299.17 384.47 299.86 385.83C301.39 388.86 301.04 390.31 297.44 395.74C295.92 398.05 294.13 400.8 293.46 401.86C292.8 402.91 291.13 405.45 289.76 407.5C288.38 409.54 286.67 412.16 285.96 413.3C284.39 415.82 283.86 416.35 281.95 417.26C280.55 417.93 278.75 418.16 277.66 417.8ZM242.21 388.99C240.92 388.31 239.79 387.21 238.84 385.71C235.2 379.91 233.52 377.41 231.01 374.04C228.08 370.1 228.16 366.63 231.23 364.07C231.88 363.53 234.21 362.05 236.41 360.78C238.61 359.52 240.7 358.29 241.07 358.06C241.43 357.83 242.5 357.19 243.44 356.64C244.39 356.09 246.42 354.87 247.96 353.93C249.51 352.99 250.8 352.23 250.85 352.23C250.89 352.23 251.84 351.64 252.95 350.92C256.18 348.83 257.48 348.3 259.46 348.3C260.94 348.3 261.27 348.39 262.11 349C263.7 350.17 264.8 351.62 266.99 355.42C268.37 357.82 268.91 358.58 270.85 360.92C273.15 363.69 273.56 364.92 272.99 367.38C272.59 369.13 271.63 370.24 268.14 373.01C260.62 378.97 252.17 385.72 250.56 387.05C247.78 389.34 247.41 389.51 245.16 389.51C243.63 389.51 242.97 389.39 242.21 388.99ZM602.17 382.62C600.62 382.51 598.41 382.25 597.26 382.05C596.12 381.84 594.57 381.57 593.83 381.45C589.87 380.77 587.47 380.17 582.79 378.68C572.02 375.26 563.83 370.27 557.92 363.51C554.93 360.09 553.68 358.27 551.71 354.43C550.4 351.89 550.01 350.82 548.07 344.5C547.87 343.83 547.57 342.03 547.41 340.51C547.16 338.11 547.18 337.7 547.5 337.38C547.8 337.08 548.99 336.95 553.13 336.76C556.02 336.63 560.26 336.36 562.56 336.16C564.85 335.97 568.16 335.75 569.92 335.67C571.67 335.59 574.8 335.41 576.86 335.26C581.22 334.94 581.3 334.98 581.76 337.14C583.47 345.22 588.61 350.71 597.14 353.56C601.8 355.12 603.17 355.29 611.12 355.29C618.06 355.29 618.61 355.26 620.81 354.71C626.38 353.31 629.25 351.98 632.3 349.41C633.29 348.56 635.26 345.39 635.68 343.96C635.97 342.97 636.05 341.9 635.98 339.99C635.89 337.59 635.81 337.24 634.99 335.55C633.84 333.18 631.93 331.21 629.45 329.85C628.41 329.27 627.23 328.68 626.82 328.52C624.75 327.72 621.69 326.72 619.83 326.24C618.68 325.94 616.97 325.49 616.03 325.24C612.72 324.37 607.67 323.3 603.91 322.66C602.77 322.47 601.5 322.21 601.08 322.08C600.67 321.95 599.72 321.77 598.98 321.68C598.24 321.58 597.36 321.4 597.03 321.28C596.69 321.15 595.64 320.89 594.7 320.7C593.75 320.52 591.98 320.08 590.76 319.73C589.55 319.38 588 318.94 587.33 318.76C585.11 318.13 583.85 317.69 579.24 315.93C571.97 313.16 568.93 311.49 563.68 307.34C562.47 306.39 560.86 304.93 560.11 304.1C558.31 302.11 555.79 298.32 554.83 296.18C554.4 295.23 553.98 294.3 553.87 294.09C553.77 293.89 553.41 292.79 553.07 291.64C551.66 286.91 551.58 286.34 551.46 280.95C551.35 276.1 551.38 275.58 551.99 272.52C553.43 265.25 555.24 261.17 559.27 256.08C562.06 252.56 564.88 250.09 569.67 246.98C573.73 244.33 579.18 241.83 583.53 240.6C584 240.47 585.1 240.16 585.98 239.91C588.79 239.11 591.03 238.64 593.75 238.26C595.21 238.06 597.12 237.8 598 237.68C601.02 237.26 610.94 237.11 615.42 237.42C620.44 237.76 627.83 238.98 631.11 240C634.97 241.21 638.47 242.44 639.94 243.12C649.72 247.61 654.14 251.23 660.15 259.73C661.44 261.54 663.52 265.8 664.44 268.48C665.13 270.51 666.19 275.67 666.19 277.04C666.19 277.35 666.04 277.72 665.86 277.88C665.66 278.04 662.87 278.3 658.84 278.52C655.16 278.73 652.06 278.95 651.95 279.02C651.84 279.08 649.13 279.3 645.91 279.5C642.7 279.7 639.4 279.98 638.59 280.11C636.39 280.48 633.68 280.43 633.34 280.02C633.19 279.83 632.83 278.87 632.56 277.88C630.18 269.29 622.9 264.43 611.25 263.65C601.37 262.99 593.92 264.82 589.38 269.02C587.83 270.46 587.07 271.64 586.24 273.9C585.77 275.19 585.7 275.79 585.78 277.95C585.86 280.11 585.97 280.69 586.55 281.88C588.83 286.56 594.08 289.38 605.11 291.87C606.39 292.16 608.33 292.61 609.41 292.86C610.48 293.11 611.98 293.45 612.72 293.62C613.46 293.78 614.95 294.11 616.03 294.35C617.11 294.59 619.04 295.02 620.32 295.31C624.72 296.28 628.13 297.07 631.97 298.02C632.65 298.19 633.82 298.53 634.57 298.78C635.33 299.04 636.13 299.25 636.35 299.25C636.7 299.25 637.93 299.65 642.03 301.13C642.57 301.32 643.46 301.7 644.01 301.96C644.56 302.22 645.08 302.43 645.18 302.43C645.38 302.43 649.19 304.19 650.61 304.93C654.86 307.16 658.21 309.77 661.42 313.34C663.74 315.92 664.99 317.76 666.56 320.95C672.25 332.49 671.5 347.71 664.67 359.27C663.26 361.66 661.78 363.49 658.59 366.78C656.3 369.15 654.81 370.31 651.03 372.65C649.99 373.29 648.98 373.92 648.77 374.05C648.09 374.48 644.01 376.45 642.4 377.12C639.58 378.3 639.11 378.47 637.86 378.82C637.18 379 635.86 379.39 634.92 379.69C632.79 380.34 629.69 381.05 626.94 381.51C625.8 381.7 624.36 381.98 623.75 382.12C620.83 382.81 608.9 383.09 602.17 382.62ZM1363.05 382.63C1361.24 382.52 1358.81 382.26 1357.66 382.05C1356.5 381.84 1355 381.57 1354.33 381.44C1350.34 380.73 1342.29 378.28 1338.75 376.7C1335.55 375.27 1333.23 374.05 1329.42 371.8C1327.38 370.59 1323.08 367.33 1320.72 365.22C1313.97 359.14 1310.33 354.3 1306.27 345.97C1303.2 339.67 1300.86 332.02 1299.64 324.26C1299.02 320.31 1298.7 311.45 1298.99 306.17C1299.31 300.32 1300.33 293.78 1301.4 290.71C1301.6 290.13 1301.91 289.08 1302.08 288.38C1302.26 287.68 1302.54 286.72 1302.7 286.25C1303.62 283.62 1303.94 282.75 1304.65 280.88C1305.08 279.75 1305.53 278.65 1305.65 278.43C1305.77 278.21 1306.21 277.31 1306.62 276.43C1307.41 274.76 1307.9 273.94 1310.5 269.93C1316.02 261.43 1322.46 255.31 1332.51 249.03C1333.74 248.26 1341.09 244.56 1341.94 244.28C1342.28 244.17 1343.33 243.79 1344.27 243.44C1346.67 242.54 1348.91 241.87 1350.77 241.48C1351.65 241.3 1352.65 241.04 1353 240.91C1353.34 240.78 1354.28 240.6 1355.08 240.51C1355.88 240.42 1357.26 240.2 1358.13 240C1363.1 238.92 1376.41 238.91 1381.25 239.99C1382.09 240.18 1383.44 240.41 1384.24 240.5C1385.04 240.59 1385.98 240.78 1386.32 240.91C1386.67 241.04 1387.67 241.29 1388.55 241.47C1389.42 241.65 1390.47 241.91 1390.88 242.06C1391.28 242.21 1392.55 242.61 1393.7 242.95C1398.72 244.45 1405.78 247.88 1410.61 251.16C1416.58 255.22 1423.57 262.27 1427.16 267.84C1428.53 269.98 1430.14 272.89 1430.82 274.47C1431.2 275.35 1431.65 276.4 1431.83 276.8C1432.2 277.63 1432.93 279.62 1433.55 281.46C1433.78 282.14 1434.17 283.71 1434.42 284.96C1434.68 286.21 1434.94 287.33 1435.02 287.45C1435.22 287.79 1434.9 288.44 1434.39 288.71C1434.14 288.84 1431.83 289.12 1429.24 289.32C1426.66 289.52 1424.46 289.74 1424.35 289.81C1424.24 289.88 1422.24 290.09 1419.9 290.29C1417.56 290.49 1415.1 290.75 1414.42 290.88C1413.75 291 1412.09 291.18 1410.75 291.27C1409.4 291.36 1407.05 291.59 1405.53 291.79C1404.01 292 1402.65 292.08 1402.5 291.99C1402.17 291.79 1401.06 289.32 1401.06 288.79C1401.06 287.99 1399.26 284.34 1397.78 282.13C1393.62 275.94 1386.47 271.36 1377.51 269.16C1375.96 268.78 1374.69 268.71 1369.54 268.72C1363.99 268.73 1363.22 268.78 1361.46 269.27C1360.39 269.57 1359.37 269.81 1359.19 269.81C1358.75 269.81 1353.68 271.79 1353.23 272.14C1353.02 272.3 1352.36 272.68 1351.75 272.98C1347.57 275.09 1343.85 278.37 1340.48 282.92C1339.25 284.58 1336.77 289.32 1336.04 291.38C1333.24 299.38 1332.6 302.74 1332.44 310.23C1332.34 314.75 1332.4 315.92 1332.86 318.82C1334.48 329.1 1337.81 336.91 1343.13 342.86C1345.08 345.05 1348.97 348.22 1351.26 349.49C1355.53 351.86 1358.56 352.89 1363.68 353.69C1374.13 355.32 1384.84 352.78 1392.25 346.93C1394.47 345.17 1397.46 341.9 1398.74 339.84C1400.22 337.45 1402.04 333.69 1402.04 333.02C1402.04 332.81 1402.33 332.29 1402.69 331.86C1403.25 331.2 1403.46 331.11 1404.1 331.24C1404.52 331.32 1406.39 331.55 1408.25 331.75C1410.12 331.95 1411.74 332.17 1411.86 332.24C1411.97 332.31 1413.26 332.47 1414.72 332.6C1416.17 332.73 1418.47 333 1419.82 333.2C1421.17 333.41 1423.54 333.68 1425.09 333.82C1426.65 333.96 1428.91 334.19 1430.12 334.33C1431.34 334.48 1432.99 334.67 1433.8 334.76L1435.27 334.93L1435.27 336.28C1435.26 337.74 1434.61 340.07 1433.28 343.4C1432.83 344.55 1432.45 345.6 1432.45 345.73C1432.45 345.86 1431.74 347.41 1430.86 349.16C1428.45 353.99 1424.66 359.07 1420.08 363.63C1416.36 367.33 1414.34 368.96 1409.94 371.79C1407.36 373.45 1407.05 373.62 1403.39 375.45C1401.2 376.55 1400.23 376.96 1397.13 378.12C1395.3 378.8 1389.84 380.41 1388.8 380.57C1388.19 380.67 1387.29 380.88 1386.8 381.06C1386.31 381.23 1385.26 381.45 1384.47 381.54C1383.68 381.63 1382.36 381.85 1381.54 382.04C1378.26 382.77 1370.12 383.03 1363.05 382.63ZM893.2 382.5C892.52 382.41 890.39 382.06 886.58 381.41C883.77 380.93 879.09 379.77 876.64 378.95C870.83 376.99 868.79 376.08 863.69 373.15C858.16 369.98 855.27 367.81 850.56 363.26C844.85 357.76 840.62 351.57 836.97 343.4C836.34 341.99 834.37 336.61 834.1 335.55C834.01 335.21 833.73 334.22 833.48 333.34C831.85 327.59 831.13 322.28 830.88 314.33C830.57 304.23 831.6 295.3 833.85 288.58C836.26 281.35 836.84 279.88 839.21 274.96C841.55 270.13 846.05 263.7 850.03 259.54C852.66 256.77 856.93 253.13 859.44 251.49C863.54 248.81 870.64 244.96 872.72 244.28C873.05 244.17 874.1 243.79 875.05 243.43C875.99 243.08 877.32 242.64 877.99 242.45C878.67 242.27 879.66 241.96 880.2 241.75C880.74 241.55 881.37 241.38 881.61 241.37C881.85 241.36 882.85 241.15 883.82 240.89C887.08 240.02 889.01 239.64 891.38 239.4C892.67 239.27 894.33 239.03 895.06 238.86C897.14 238.39 907.7 238.46 911.59 238.96C913.35 239.18 915.5 239.43 916.38 239.51C920.79 239.89 929.94 242.14 933.92 243.82C934.18 243.94 935.18 244.33 936.12 244.69C937.71 245.31 943 247.94 944.54 248.88C949.27 251.79 953.03 254.72 957.06 258.61C960.33 261.79 963.21 265.82 965.65 270.65C967.79 274.87 968.45 276.58 969.22 279.87C969.39 280.61 969.61 281.46 969.7 281.76C970.03 282.79 969.21 283.22 966.51 283.41C965.18 283.5 963.09 283.73 961.88 283.92C960.66 284.12 958.34 284.38 956.72 284.52C955.11 284.65 953.23 284.87 952.55 284.99C951.88 285.12 950.23 285.29 948.88 285.38C947.53 285.47 945.54 285.69 944.46 285.88C943.38 286.06 941.34 286.29 939.92 286.38C937.43 286.53 937.33 286.52 936.83 285.96C936.54 285.65 936.22 285.13 936.13 284.82C935.84 283.86 934.31 281.3 932.92 279.45C931.21 277.17 929.79 275.8 926.99 273.71C922.68 270.49 918.5 268.65 912.7 267.42C909.85 266.81 909.2 266.77 903.62 266.77C898.29 266.77 897.34 266.83 895.16 267.32C890.14 268.44 886.97 269.64 883.51 271.73C883.04 272.02 882.33 272.43 881.94 272.65C880.54 273.44 877.65 275.71 876.1 277.23C870.78 282.48 866.57 291.1 865.21 299.55C864.41 304.57 864.33 305.83 864.44 312.35C864.55 319.22 864.69 320.35 865.9 324.75C866.86 328.24 867.61 330.28 868.93 333.02C872.89 341.24 878.54 346.97 886.45 350.76C887.33 351.18 888.34 351.68 888.7 351.88C889.06 352.07 889.52 352.23 889.74 352.23C889.95 352.23 890.77 352.44 891.54 352.7C892.32 352.97 893.5 353.25 894.18 353.34C894.85 353.43 896.07 353.66 896.88 353.84C898.53 354.22 908.34 354.31 910.25 353.96C910.85 353.85 912.18 353.63 913.19 353.47C914.2 353.31 915.66 352.96 916.44 352.7C917.22 352.44 917.99 352.23 918.16 352.23C918.55 352.22 921.69 350.95 923.73 349.95C926.6 348.56 929.85 346.13 932.13 343.66C934.6 340.99 936.99 337.2 938.22 334C938.58 333.06 939.43 329.73 939.43 329.25C939.43 329.22 939.26 329.03 939.05 328.82C938.71 328.48 936.96 328.43 923.49 328.43C910.02 328.43 908.27 328.39 907.93 328.05C907.59 327.71 907.55 326.25 907.55 315.69C907.55 306.41 907.62 303.67 907.85 303.48C908.54 302.94 970.68 302.86 971.55 303.41C971.96 303.66 972.03 378.43 971.62 379.15L971.3 379.7L960.15 379.7L948.99 379.7L948.53 378.94C948.28 378.52 948 377.66 947.91 377.04C947.83 376.41 947.55 374.96 947.29 373.81C946.75 371.39 946.12 367.65 945.92 365.72C945.68 363.38 945.63 363.26 944.86 363.26C944.31 363.26 943.94 363.55 943.05 364.67C940.44 367.98 935.88 371.89 931.33 374.7C928.83 376.25 926.05 377.52 921.77 379.09C919.32 379.99 915.09 381.09 912.4 381.53C911.23 381.72 909.85 382.01 909.33 382.16C908.44 382.44 894.9 382.72 893.2 382.5ZM681.28 379.7C679.23 379.6 678.81 379.51 678.75 379.16C678.68 378.81 679.09 377.71 680.41 374.67C680.53 374.4 680.9 373.52 681.23 372.71C681.57 371.9 682.28 370.19 682.82 368.91C683.36 367.62 683.88 366.3 683.98 365.96C684.07 365.62 684.24 365.24 684.34 365.1C684.44 364.97 684.66 364.42 684.83 363.88C685 363.34 685.22 362.79 685.32 362.65C685.42 362.52 685.59 362.13 685.68 361.79C685.78 361.46 686.06 360.74 686.3 360.2C686.74 359.21 687.46 357.46 688.27 355.42C688.88 353.88 689.96 351.26 690.34 350.39C690.52 349.98 690.91 349.04 691.21 348.3C691.51 347.56 691.96 346.46 692.2 345.85C692.45 345.24 692.94 343.97 693.29 343.03C694.43 340.02 694.98 338.62 695.15 338.37C695.24 338.23 695.45 337.68 695.62 337.14C695.79 336.6 696.01 336.05 696.11 335.92C696.21 335.78 696.43 335.23 696.6 334.69C696.77 334.15 697 333.6 697.1 333.46C697.2 333.33 697.36 332.94 697.46 332.6C697.56 332.27 697.92 331.38 698.25 330.64C699.55 327.74 699.96 326.76 701.37 323.16C702 321.54 702.72 319.72 702.97 319.11C703.74 317.21 704.44 315.48 704.91 314.27C705.98 311.57 707.47 307.94 708 306.73C708.65 305.25 709.07 304.22 709.67 302.67C710 301.8 710.64 300.15 711.08 299C711.52 297.85 712.08 296.42 712.31 295.81C712.97 294.11 714.49 290.38 714.86 289.56C715.94 287.14 716.23 286.45 716.23 286.19C716.23 286.04 716.43 285.46 716.68 284.91C717.64 282.78 717.96 282 719.29 278.65C720.53 275.51 721.8 272.48 722.75 270.39C722.94 269.96 723.1 269.52 723.1 269.41C723.1 269.29 723.26 268.88 723.47 268.49C723.67 268.1 724.6 265.9 725.53 263.59C726.47 261.28 727.53 258.67 727.9 257.79C728.66 255.99 730.32 251.78 730.85 250.31C731.49 248.56 733.43 244.19 733.76 243.73C733.95 243.48 734.52 243.18 735.03 243.06C735.58 242.93 743.48 242.9 753.84 243C774.4 243.18 772.04 242.81 773.36 246.07C774.59 249.1 778.22 257.6 780.31 262.33C781.32 264.62 782.88 268.22 783.76 270.31C784.65 272.41 786.33 276.27 787.49 278.9C788.66 281.52 790.14 284.99 790.79 286.61C791.44 288.23 792.33 290.33 792.75 291.27C794.01 294.05 797.14 301.41 798.03 303.66C798.87 305.78 800.48 309.59 803.42 316.42C804.32 318.51 805.43 321.16 805.88 322.3C806.78 324.61 808.36 328.35 808.68 328.94C808.8 329.15 809.96 332.02 811.28 335.32C813.56 341.05 814.82 344.07 815.79 346.22C816.04 346.76 816.49 347.86 816.79 348.67C817.09 349.48 817.48 350.47 817.65 350.88C817.82 351.28 818.46 352.77 819.07 354.19C819.67 355.61 820.47 357.53 820.84 358.46C821.2 359.4 821.6 360.34 821.71 360.55C821.83 360.76 822.21 361.65 822.57 362.53C822.92 363.41 823.3 364.29 823.41 364.5C823.51 364.71 824.4 366.92 825.37 369.41C826.34 371.9 827.29 374.27 827.48 374.67C827.82 375.41 828.4 377.01 828.82 378.34C828.99 378.86 828.97 379.15 828.75 379.36C828.52 379.57 824.13 379.68 812.03 379.78C793.66 379.94 794.27 379.99 793.73 378.31C793.56 377.79 793.27 377.15 793.09 376.88C792.9 376.62 792.75 376.23 792.75 376.03C792.74 375.82 792.52 375.21 792.26 374.67C792 374.13 791.79 373.59 791.78 373.48C791.78 373.37 791.62 372.92 791.43 372.5C791.1 371.78 790.37 370.03 789.31 367.43C789.06 366.83 788.57 365.56 788.22 364.61C787.86 363.67 787.43 362.57 787.24 362.16C786.07 359.55 784.14 354.7 783.79 353.45C783.47 352.33 782.48 350.57 782.08 350.42C781.38 350.15 724.91 350.24 724.2 350.51C723.8 350.66 723.42 351.1 723.19 351.67C722.99 352.18 722.67 352.93 722.49 353.33C722.16 354.06 721.08 356.84 720.02 359.71C719.73 360.52 719.07 362.28 718.56 363.63C716.8 368.31 716.44 369.28 716.2 370.06C716.07 370.49 715.8 371.15 715.61 371.53C715.41 371.91 715.25 372.36 715.25 372.54C715.25 372.71 715.04 373.32 714.8 373.89C714.55 374.45 714.04 375.74 713.65 376.75C713.27 377.77 712.72 378.84 712.44 379.13L711.93 379.67L697.83 379.74C690.07 379.79 682.62 379.77 681.28 379.7ZM999.21 379.7C998.11 379.62 997.47 379.45 997.32 379.21C997.17 378.98 997.08 353.41 997.08 311.36C997.08 248.89 997.11 243.85 997.48 243.53C997.81 243.26 1000.54 243.18 1012.38 243.13C1020.35 243.08 1027.35 243.12 1027.92 243.2C1028.61 243.3 1029.05 243.52 1029.23 243.84C1029.5 244.36 1029.57 377.78 1029.3 378.88C1029.22 379.19 1028.92 379.51 1028.63 379.61C1028.03 379.8 1001.73 379.88 999.21 379.7ZM1089.86 379.76C1088.48 379.52 1088.57 383.29 1088.57 324.86L1088.57 271.11L1088.05 270.65C1087.56 270.21 1087.03 270.18 1078.54 270.16C1049.63 270.11 1047.66 270.08 1047.25 269.67C1046.91 269.33 1046.87 267.8 1046.87 256.56L1046.87 243.84L1047.41 243.46C1047.9 243.11 1053.79 243.08 1105.18 243.08L1162.4 243.08L1162.91 243.59C1163.43 244.11 1163.43 244.16 1163.34 256.71C1163.27 267.5 1163.2 269.36 1162.89 269.67C1162.57 269.99 1159.9 270.05 1142.65 270.15C1131.72 270.2 1122.58 270.33 1122.33 270.43C1122.09 270.53 1121.79 270.86 1121.68 271.16C1121.57 271.45 1121.46 295.86 1121.45 325.39C1121.42 367.09 1121.35 379.15 1121.12 379.36C1120.91 379.56 1116.46 379.67 1105.61 379.75C1097.25 379.81 1090.16 379.81 1089.86 379.76ZM1182.39 379.78C1182.12 379.7 1181.76 379.53 1181.59 379.4C1181.35 379.2 1181.28 365.32 1181.28 311.51C1181.28 248.9 1181.31 243.85 1181.69 243.53C1182.03 243.25 1190.1 243.2 1232.24 243.2C1281.59 243.2 1282.38 243.21 1282.73 243.67C1283.02 244.07 1283.08 246.23 1283.08 256.61C1283.08 268.75 1283.06 269.09 1282.58 269.57C1282.01 270.14 1282.99 270.13 1240.1 270.06L1215.15 270.02L1214.53 270.64L1213.91 271.26L1213.91 283.26C1213.91 294.33 1213.94 295.31 1214.33 295.79L1214.76 296.31L1243.95 296.44C1260.01 296.51 1273.38 296.61 1273.66 296.67C1273.95 296.74 1274.25 297.04 1274.34 297.34C1274.42 297.65 1274.49 303.39 1274.49 310.1C1274.49 321.98 1274.48 322.31 1274 322.79C1273.51 323.28 1273.18 323.28 1244.11 323.28C1215.95 323.28 1214.7 323.3 1214.31 323.73C1213.94 324.14 1213.91 325.48 1213.91 337.93C1213.91 349.38 1213.96 351.72 1214.25 351.96C1214.5 352.17 1223.53 352.26 1249.59 352.3C1282.74 352.35 1284.6 352.37 1284.9 352.78C1285.16 353.13 1285.2 355.86 1285.14 366.13C1285.07 377.54 1285.02 379.08 1284.68 379.43C1284.32 379.78 1279.6 379.82 1233.58 379.86C1205.69 379.89 1182.66 379.85 1182.39 379.78ZM1458.97 379.71C1458.36 379.61 1457.75 379.33 1457.56 379.08C1457.28 378.7 1457.23 367.61 1457.23 311.49C1457.23 245.76 1457.24 244.34 1457.7 243.78L1458.16 243.2L1473.88 243.2C1488.05 243.2 1489.63 243.24 1489.98 243.6C1490.35 243.96 1490.39 246.3 1490.42 269.28C1490.46 293.2 1490.49 294.59 1490.9 295.01C1491.32 295.42 1492.83 295.44 1520.87 295.43C1544.83 295.42 1550.47 295.35 1550.78 295.09C1551.13 294.8 1551.17 292.2 1551.17 269.3L1551.17 243.82L1551.72 243.49C1552.17 243.22 1555.13 243.15 1567.44 243.12C1577.34 243.09 1582.77 243.17 1583.08 243.33C1583.33 243.47 1583.72 243.93 1583.95 244.36C1584.31 245.06 1584.33 245.82 1584.18 251.03C1584.08 254.26 1584.01 283.96 1584.01 317.02C1584.02 351.55 1583.93 377.53 1583.8 378.08C1583.68 378.6 1583.44 379.17 1583.26 379.34C1583 379.59 1579.7 379.68 1567.97 379.74C1559.74 379.78 1552.76 379.73 1552.45 379.62C1551.12 379.13 1551.17 380.22 1551.17 351.18C1551.17 330.65 1551.1 324.29 1550.88 324.07C1550.65 323.84 1543.68 323.77 1521 323.77C1495.84 323.77 1491.34 323.83 1490.94 324.12C1490.47 324.46 1490.46 325.08 1490.38 351.82C1490.33 372.52 1490.24 379.23 1490.02 379.4C1489.67 379.68 1460.55 379.96 1458.97 379.71ZM222.22 350.03C221.07 349.68 220.09 349.06 219.32 348.19C218.18 346.89 217.84 346.07 217.55 343.99C217.4 342.96 217.07 341.16 216.81 339.99C213.93 327.1 213.78 326.06 214.51 323.99C214.94 322.76 216.26 321.3 217.7 320.45C218.75 319.82 221.44 319.36 226.89 318.87C228.44 318.72 230.92 318.45 232.41 318.26C233.89 318.06 236.04 317.79 237.19 317.65C238.34 317.51 240.16 317.29 241.24 317.15C242.32 317.01 244.08 316.79 245.16 316.66C249.44 316.13 251.02 316.48 252.86 318.38C254.04 319.59 254.17 320.02 254.97 325.16C255.74 330.09 256.44 333.76 256.79 334.64C257.31 335.99 257.12 338.13 256.33 339.69C255.11 342.12 253.68 343.02 249.7 343.86C248.28 344.16 246.29 344.62 245.28 344.88C242.83 345.52 240.55 346.08 238.91 346.46C237.29 346.84 230.69 348.57 228.11 349.29C224.98 350.17 224.58 350.25 223.7 350.24C223.23 350.23 222.56 350.14 222.22 350.03ZM771.68 323.76C772.51 323.32 772.54 323.44 768.54 313.47C767.54 310.98 766.06 307.28 765.25 305.25C764.45 303.23 762.81 299.2 761.6 296.3C760.39 293.4 758.59 288.93 757.59 286.37C753.95 277 753.48 275.94 753.01 275.94C752.64 275.94 752.04 276.71 751.89 277.37C751.74 277.99 750.95 280.03 750.19 281.71C749.56 283.13 748.81 284.91 748.2 286.49C747.86 287.37 747.24 288.91 746.83 289.92C746.42 290.94 745.93 292.21 745.74 292.75C745.55 293.28 745.23 294.07 745.04 294.5C744.84 294.92 744.68 295.39 744.68 295.54C744.68 295.68 744.47 296.27 744.2 296.85C743.94 297.42 743.49 298.56 743.19 299.37C742.9 300.18 742.46 301.34 742.21 301.94C741.74 303.12 740.52 306.17 739.72 308.2C739.46 308.87 739.1 309.87 738.92 310.41C738.75 310.95 738.43 311.77 738.22 312.25C738.01 312.72 737.55 313.88 737.19 314.82C736.84 315.77 736.39 316.89 736.2 317.31C736.01 317.74 735.85 318.21 735.85 318.37C735.85 318.69 735.01 320.85 734.48 321.89C734.05 322.75 734.03 323.69 734.44 323.86C735.07 324.11 771.19 324.02 771.68 323.76ZM243.08 307.56C238.01 306.71 234.42 306.1 231.55 305.59C230 305.32 227.84 304.95 226.76 304.76C225.68 304.57 223.86 304.3 222.72 304.15C220.09 303.83 218.64 303.31 217.61 302.34C216.44 301.23 215.93 300.3 215.61 298.63C215.29 296.99 215.36 296.55 216.91 290.54C217.4 288.65 218.23 285.15 218.77 282.77C219.84 278 220.29 277.03 222.03 275.66C223.43 274.55 224.73 273.98 225.87 273.98C226.8 273.98 229.47 274.59 231.73 275.32C234.18 276.1 239.36 277.63 241.36 278.15C242.51 278.45 243.88 278.84 244.42 279.03C244.96 279.21 246.12 279.53 247 279.74C249.07 280.24 251.68 280.93 253.4 281.44C256.9 282.47 258.93 286.19 257.92 289.68C257.7 290.42 257.38 291.64 257.2 292.38C257.02 293.12 256.71 294.28 256.51 294.95C255.86 297.1 255.33 299.57 255.12 301.46C254.78 304.48 253.56 306.37 251.15 307.6C249.92 308.22 246.94 308.21 243.08 307.56ZM258.16 274.07C257.35 273.72 256.58 273.35 256.44 273.25C256.31 273.15 254.16 272.01 251.66 270.74C249.16 269.46 246.49 268.06 245.71 267.64C244.94 267.22 243.67 266.52 242.89 266.1C241.4 265.28 237.15 263.05 235.12 262.02C233.6 261.24 231.92 259.53 231.52 258.34C231.35 257.84 231.21 256.71 231.2 255.83C231.18 253.81 231.27 253.63 235.49 247.25C238.87 242.12 239.56 241.04 240.85 238.77C242.68 235.55 244.62 234.17 247.35 234.14C249.27 234.12 250.67 234.79 254.25 237.46C255.73 238.56 258.92 240.8 261.35 242.45C266.31 245.81 272.35 250.3 273.89 251.78C275.22 253.06 275.63 254.43 275.24 256.3C274.96 257.69 274.41 258.63 272.45 261.09C271.22 262.63 269.63 265.32 267.83 268.91C266.46 271.64 265.33 272.95 263.48 273.94C261.64 274.92 260.23 274.95 258.16 274.07ZM282.15 244.44C280.1 243.92 278.9 243.02 276.72 240.37C274.63 237.84 268.28 230.99 264.57 227.26C262.53 225.22 260.97 223.44 260.7 222.85C260.42 222.21 260.25 221.27 260.25 220.23C260.24 217.44 261.37 215.61 264.54 213.28C265.08 212.88 265.92 212.22 266.4 211.81C266.89 211.4 267.93 210.57 268.72 209.96C270.08 208.92 272.33 206.98 275.07 204.49C279.69 200.29 283.57 200.79 287.64 206.12C295.8 216.81 301.2 224.07 301.78 225.13C302.43 226.31 302.48 226.61 302.38 228.12C302.19 230.69 300.92 232.53 297.95 234.53C295.42 236.23 293.85 237.5 290.52 240.51C288.78 242.09 286.96 243.65 286.48 243.97C285.4 244.69 283.81 244.86 282.15 244.44ZM313.93 220.68C312.08 219.98 310.57 218.53 309.8 216.71C309.04 214.93 304.27 205.48 303.11 203.46C299.21 196.72 298.96 196.18 298.82 194.39C298.73 193.27 298.83 192.58 299.23 191.52C300.1 189.23 301.39 188.28 308.07 185.01C318.88 179.72 319.47 179.48 321.57 179.47C323.24 179.46 323.56 179.54 324.88 180.31C326.45 181.22 327.85 182.95 328.53 184.82C329.36 187.11 331.55 192.54 331.84 193.06C331.96 193.27 332.36 194.21 332.73 195.14C333.1 196.07 333.66 197.4 333.98 198.09C334.3 198.78 334.57 199.5 334.57 199.7C334.57 199.9 334.73 200.27 334.93 200.53C335.12 200.8 335.29 201.17 335.3 201.38C335.3 201.58 335.48 202.07 335.69 202.48C336.41 203.87 337.32 206.34 337.44 207.26C337.61 208.5 336.52 210.92 335.29 212.03C334.49 212.75 332.72 213.68 329.09 215.31C328.57 215.54 325.86 216.87 323.08 218.27C318.5 220.56 317.85 220.81 316.42 220.91C315.43 220.97 314.48 220.88 313.93 220.68ZM353.08 205.09C351.8 204.85 350.28 203.87 349.31 202.64C348.47 201.57 347.32 198.63 347.32 197.52C347.32 197.15 346.92 195.29 346.44 193.41C345.95 191.52 345.41 189.36 345.23 188.62C344.12 184.12 343.35 181.47 342.77 180.16C342.1 178.66 342.17 175.58 342.89 174.15C343.61 172.73 345.25 171.03 346.34 170.56C346.81 170.36 349.02 169.76 351.25 169.23C353.47 168.7 357.22 167.76 359.58 167.13C361.95 166.51 364.48 165.89 365.23 165.76C367.1 165.44 368.83 165.85 370.37 167.01C372.39 168.53 373.35 170.37 373.8 173.6C374.06 175.42 374.78 179.12 375.9 184.33C376.25 185.95 376.64 187.94 376.77 188.75C376.91 189.55 377.24 191.14 377.52 192.28C378.08 194.55 378.02 195.69 377.25 197.2C376.02 199.61 374.22 200.77 370.38 201.61C368.96 201.92 366.59 202.49 365.1 202.88C363.62 203.27 361.91 203.71 361.3 203.86C360.69 204.01 359.48 204.35 358.61 204.63C356.86 205.17 354.59 205.36 353.08 205.09ZM1335.93 200.17C1332.55 200.05 1331.87 199.96 1331.02 199.5C1329.61 198.74 1328.16 197.26 1327.46 195.85L1326.86 194.63L1326.79 182.71C1326.72 171.09 1326.74 170.76 1327.23 169.6C1327.97 167.89 1329.22 166.47 1330.77 165.59L1332.12 164.83L1343.91 164.83L1355.69 164.83L1357.13 165.56C1358.69 166.34 1359.68 167.38 1360.61 169.19L1361.2 170.35L1361.27 182.12C1361.32 190.75 1361.26 194.18 1361.05 194.97C1360.63 196.46 1359.16 198.22 1357.47 199.24L1356.05 200.09L1347.95 200.2C1343.5 200.27 1338.09 200.25 1335.93 200.17ZM1447.66 200.16C1445.21 199.88 1442.75 198.07 1441.59 195.71C1441.04 194.58 1441.04 194.53 1441.04 182.56L1441.04 170.54L1441.67 169.34C1442.49 167.79 1443.79 166.45 1445.36 165.55L1446.62 164.83L1458.34 164.83L1470.07 164.83L1471.57 165.56C1473.39 166.45 1474.16 167.22 1475.13 169.12L1475.87 170.56L1475.87 182.5L1475.87 194.44L1475.24 195.64C1474.42 197.19 1473.11 198.54 1471.58 199.4L1470.35 200.09L1459.68 200.2C1453.81 200.27 1448.4 200.25 1447.66 200.16ZM1504.08 200.15C1501.1 200 1500.04 199.56 1498.18 197.71C1496 195.53 1496.1 196.27 1496.1 182.49L1496.1 170.35L1496.76 169.12C1497.56 167.61 1498.91 166.3 1500.52 165.48L1501.75 164.85L1513.4 164.8L1525.05 164.74L1526.3 165.38C1527.74 166.13 1528.84 167.29 1529.71 169L1530.32 170.21L1530.32 182.37L1530.32 194.54L1529.68 195.88C1528.98 197.38 1527.81 198.63 1526.3 199.5C1525.3 200.09 1525.27 200.09 1515.97 200.18C1510.85 200.23 1505.49 200.22 1504.08 200.15ZM1556.2 200.18C1554.04 199.86 1551.85 198.24 1550.72 196.1L1550.07 194.88L1550.07 182.49L1550.07 170.1L1550.78 168.91C1551.73 167.31 1552.8 166.28 1554.36 165.47L1555.65 164.79L1567.45 164.76L1579.25 164.72L1580.42 165.42C1581.79 166.23 1583.02 167.65 1583.83 169.37L1584.41 170.59L1584.41 182.86C1584.41 195.12 1584.41 195.12 1583.85 196.16C1583.07 197.61 1581.99 198.79 1580.73 199.52L1579.66 200.15L1568.54 200.25C1562.43 200.31 1556.87 200.27 1556.2 200.18ZM1016.82 199.91C1014.36 199.46 1012.12 197.86 1010.93 195.7L1010.2 194.39L1010.13 182.53L1010.06 170.68L1010.64 169.4C1011.43 167.69 1012.52 166.49 1014.13 165.58L1015.46 164.83L1026.76 164.83L1038.05 164.83L1039.28 165.45C1040.89 166.27 1042.35 167.76 1043.08 169.33L1043.67 170.59L1043.68 182.39L1043.68 194.19L1043.05 195.39C1042.19 197.02 1040.94 198.26 1039.29 199.12L1037.92 199.84L1027.86 199.97C1022.33 200.04 1017.36 200.01 1016.82 199.91ZM1067.05 199.5C1065.35 198.81 1063.88 197.49 1062.86 195.75L1062.2 194.63L1062.2 182.25C1062.2 168.43 1062.08 169.44 1063.98 167.28C1064.52 166.68 1065.56 165.88 1066.3 165.5L1067.64 164.83L1078.85 164.83L1090.05 164.83L1091.49 165.56C1093.08 166.36 1094.42 167.8 1095.05 169.38C1095.4 170.26 1095.44 171.81 1095.38 182.62C1095.31 194.25 1095.29 194.93 1094.83 195.85C1094.19 197.15 1092.54 198.7 1090.95 199.5L1089.66 200.15L1079.12 200.14L1068.58 200.13L1067.05 199.5ZM1119.28 199.36C1117.29 198.33 1116.13 197.17 1115.4 195.52L1114.81 194.2L1114.81 182.49L1114.81 170.78L1115.42 169.4C1116.18 167.69 1117.57 166.27 1119.3 165.46L1120.62 164.83L1131.84 164.83L1143.05 164.83L1144.36 165.45C1145.81 166.14 1147.11 167.43 1147.98 169.05L1148.54 170.1L1148.53 182.37L1148.52 194.63L1147.8 195.95C1147.03 197.36 1145.78 198.51 1144 199.45L1142.9 200.03L1131.86 200.1L1120.82 200.17L1119.28 199.36ZM1172.08 199.41C1170.37 198.4 1169.19 197.23 1168.5 195.83L1167.92 194.63L1167.85 182.59C1167.78 171.17 1167.8 170.49 1168.25 169.47C1168.91 167.95 1170.28 166.46 1171.82 165.58L1173.13 164.83L1184.3 164.83C1195.17 164.83 1195.5 164.84 1196.86 165.36C1198.55 166.01 1200.11 167.47 1200.99 169.22L1201.64 170.51L1201.64 182.4L1201.64 194.28L1201.05 195.44C1200.18 197.14 1198.88 198.53 1197.35 199.39L1196.01 200.15L1184.66 200.14L1173.31 200.13L1172.08 199.41ZM1225.43 199.56C1223.68 198.81 1221.97 197.28 1221.17 195.75L1220.53 194.52L1220.53 182.58L1220.53 170.64L1221.13 169.37C1221.89 167.77 1223.3 166.35 1224.99 165.5L1226.3 164.83L1237.37 164.83L1248.45 164.83L1249.71 165.46C1251.3 166.26 1252.48 167.44 1253.32 169.07L1253.98 170.35L1254 182.37L1254.01 194.39L1253.36 195.62C1252.5 197.25 1251.07 198.64 1249.41 199.48L1248.07 200.15L1237.43 200.14C1226.82 200.13 1226.78 200.13 1225.43 199.56ZM1277.35 199.43C1275.56 198.38 1274.3 197.03 1273.75 195.55C1273.29 194.31 1273.26 193.63 1273.26 182.54L1273.26 170.84L1273.97 169.35C1274.82 167.54 1276.09 166.27 1277.82 165.44L1279.12 164.83L1290.43 164.83L1301.73 164.83L1303.13 165.54C1305.26 166.62 1306.41 168.02 1307.01 170.27C1307.28 171.3 1307.35 173.92 1307.36 182.85C1307.36 192.78 1307.31 194.26 1306.95 195.24C1306.36 196.83 1305.12 198.27 1303.46 199.28L1302.02 200.15L1290.28 200.14L1278.54 200.13L1277.35 199.43ZM1386.5 199.43C1384.9 198.49 1383.59 197.17 1382.88 195.78L1382.29 194.63L1382.29 182.61L1382.29 170.59L1382.89 169.42C1383.7 167.84 1385.46 166.1 1386.95 165.41L1388.18 164.83L1399.78 164.83C1411.1 164.83 1411.4 164.84 1412.41 165.35C1414.58 166.44 1416.1 168.08 1416.72 170.01C1416.89 170.55 1417.01 175.01 1417.05 182.61L1417.12 194.39L1416.56 195.61C1415.86 197.13 1414.57 198.48 1412.92 199.43L1411.67 200.15L1399.68 200.14L1387.69 200.13L1386.5 199.43ZM963.26 199.43C961.7 198.85 960.1 197.68 959.25 196.48C957.97 194.68 957.95 194.51 957.95 182.25C957.95 171.93 957.99 170.72 958.39 169.59C958.98 167.88 960.3 166.43 962.02 165.56L963.46 164.83L974.44 164.83L985.42 164.83L986.77 165.46C988.46 166.24 989.58 167.3 990.38 168.86L990.99 170.06L990.96 182.31L990.92 194.57L990.34 195.72C989.54 197.29 987.97 198.8 986.58 199.32C985.56 199.7 984.23 199.76 975 199.83C965.13 199.9 964.51 199.88 963.26 199.43ZM858.18 199.18C856.3 198.45 854.7 197.07 853.92 195.52L853.22 194.14L853.14 182.49C853.09 173.66 853.14 170.6 853.38 169.86C854.02 167.82 855.21 166.52 857.51 165.38C858.6 164.84 858.71 164.83 869.84 164.83L881.07 164.83L882.47 165.54C884.16 166.4 884.71 166.96 885.7 168.84L886.45 170.28L886.45 182.22L886.45 194.17L885.82 195.44C885 197.09 883.02 198.83 881.44 199.3C880.46 199.59 878.3 199.66 869.79 199.65C860.19 199.64 859.25 199.6 858.18 199.18ZM910.59 199.16C908.84 198.48 907.46 197.2 906.58 195.45L905.83 193.94L905.83 182.25L905.83 170.55L906.56 169.1C907.41 167.39 908.42 166.36 910.12 165.47L911.35 164.83L922.51 164.83L933.67 164.83L934.9 165.42C936.33 166.1 937.69 167.45 938.49 169L939.07 170.1L939.07 182.25L939.07 194.39L938.4 195.53C937.63 196.83 935.93 198.41 934.58 199.08C933.74 199.5 932.82 199.54 922.75 199.59C912.4 199.64 911.78 199.62 910.59 199.16ZM807.1 199.21C805.16 198.84 803.05 197.26 801.9 195.31L801.22 194.14L801.15 182.3C801.08 171.02 801.1 170.41 801.55 169.38C802.2 167.92 803.89 166.14 805.31 165.42L806.47 164.83L817.71 164.83L828.94 164.83L830.16 165.47C831.77 166.31 832.37 166.89 833.24 168.41L833.96 169.66L834.02 182.02L834.08 194.39L833.37 195.61C832.49 197.13 831.94 197.69 830.5 198.52L829.37 199.18L818.73 199.28C812.87 199.34 807.64 199.31 807.1 199.21ZM754.09 198.43C752.38 197.63 751.4 196.74 750.41 195.07L749.71 193.9L749.71 182.12L749.72 170.35L750.37 169C751.1 167.48 752.12 166.42 753.77 165.48L754.89 164.84L766.24 164.83L777.6 164.81L778.74 165.47C780.31 166.37 780.89 166.94 781.73 168.41L782.45 169.67L782.45 181.8L782.45 193.92L781.83 195.18C781.18 196.48 779.84 197.75 778.16 198.65C777.21 199.16 776.96 199.17 766.39 199.15L755.59 199.13L754.09 198.43ZM652.53 198.47C649.87 197.47 648 195.57 647.31 193.16C647.11 192.47 647.05 188.87 647.1 180.88L647.18 169.58L647.92 168.13C648.77 166.47 650.48 165.02 652.06 164.62C652.62 164.48 657.55 164.3 663.07 164.21C672.76 164.06 673.12 164.08 674.6 164.57C676.4 165.17 678.11 166.55 679.1 168.2L679.8 169.37L679.87 181.37L679.94 193.36L679.31 194.65C678.59 196.14 677.12 197.55 675.64 198.21C674.7 198.63 673.64 198.68 664.2 198.81C654.31 198.94 653.74 198.92 652.53 198.47ZM703.15 198.47C701.64 197.94 699.5 196.06 698.83 194.67C698.32 193.61 698.31 193.41 698.38 181.23L698.44 168.88L699.32 167.65C700.37 166.18 701.69 165.21 703.33 164.71C705 164.2 724.38 164.16 726.06 164.67C727.79 165.19 729.12 166.18 730.13 167.7L731.07 169.11L731.14 181.43C731.19 191.63 731.15 193.89 730.86 194.56C730.33 195.8 728.81 197.4 727.42 198.2L726.16 198.92L715.25 198.9C705.63 198.89 704.19 198.84 703.15 198.47ZM602.17 198.21C601.36 198.05 599.28 197 598.51 196.38C598.32 196.23 597.77 195.5 597.28 194.75L596.41 193.41L596.41 181.26L596.41 169.12L597.1 167.96C597.93 166.58 599.4 165.26 600.94 164.51C602.02 163.99 602.32 163.97 612.53 163.9C622.86 163.83 623.02 163.84 624.3 164.37C626.12 165.13 627.43 166.27 628.29 167.8L629.03 169.12L629 181.14L628.98 193.16L628.35 194.4C627.68 195.71 626.29 197.13 624.93 197.87C624.19 198.27 623.24 198.31 613.58 198.35C607.77 198.37 602.64 198.31 602.17 198.21ZM551.15 197.96C548.31 197.02 546.58 195.55 545.77 193.38C545.29 192.1 545.26 191.52 545.27 181.19C545.27 174.62 545.38 169.91 545.53 169.25C546.08 166.85 548.56 164.32 551.04 163.63C551.67 163.46 555.45 163.36 561.84 163.36C572.72 163.36 573.11 163.4 575.19 164.92C575.82 165.39 576.66 166.35 577.15 167.18L578.01 168.62L578.01 181.01C578.01 192.4 577.97 193.47 577.58 194.2C576.84 195.54 575.66 196.72 574.35 197.41L573.1 198.07L562.43 198.11C556.57 198.14 551.49 198.07 551.15 197.96ZM499.4 197.22C498.66 197 496.72 195.71 496.17 195.08C495.95 194.83 495.49 194.08 495.13 193.41L494.49 192.18L494.49 180.53L494.49 168.88L495.19 167.39C495.98 165.74 497.42 164.34 499.12 163.59C500.13 163.14 500.84 163.11 510.44 163.11C520.41 163.11 520.73 163.13 522.1 163.65C523.98 164.37 525.67 166.07 526.38 167.95C526.92 169.36 526.92 169.42 526.75 180.9C526.59 192.2 526.57 192.45 526.02 193.65C525.72 194.33 525.05 195.28 524.55 195.78C522.79 197.51 523.23 197.46 511.01 197.43C504.96 197.42 499.73 197.33 499.4 197.22ZM448.64 196.7C447.08 196 445.54 194.66 444.76 193.33L444.08 192.18L444.08 180.16L444.08 168.14L444.66 167.04C445.42 165.57 446.5 164.48 448.06 163.6L449.35 162.87L459.84 162.87L470.33 162.87L471.85 163.59C473.91 164.56 475.44 166.19 476.08 168.1C476.56 169.51 476.58 170.15 476.58 180.05C476.58 189.73 476.55 190.61 476.11 191.88C475.32 194.18 474.09 195.61 472.05 196.61L470.82 197.2L460.27 197.2C450.23 197.2 449.67 197.17 448.64 196.7ZM398.51 196.48C396.77 195.8 395.18 194.38 394.52 192.93C393.96 191.7 393.95 191.6 393.89 180.28C393.84 169.53 393.86 168.8 394.31 167.55C394.85 166.04 396.22 164.53 398.02 163.45L399.2 162.75L409.87 162.75L420.54 162.75L421.64 163.36C423.48 164.38 424.71 165.49 425.42 166.8L426.1 168.04L426.07 179.86L426.05 191.69L425.42 192.98C424.71 194.44 423.14 195.88 421.58 196.51C420.65 196.89 419.4 196.94 410.11 196.94C400.5 196.94 399.6 196.9 398.51 196.48Z"/>
<path fill="#cff3fd" d="M316.91 437.01C315.62 436.54 314 435.93 313.29 435.65C309.53 434.14 308.6 433.79 304.27 432.29C302.79 431.78 301.07 431.05 300.44 430.67C298.42 429.44 297.28 427.17 297.28 424.37C297.28 422.86 297.4 422.5 298.91 419.43C300.82 415.52 303.02 410.68 306.47 402.71C309.12 396.59 309.86 395.33 311.41 394.22C314.12 392.3 316.22 392.09 319.11 393.47C321.27 394.51 325.54 396.2 329.17 397.47C333.83 399.1 334.43 399.38 335.49 400.39C337.03 401.87 337.51 403.03 337.51 405.28C337.51 407.33 337.47 407.45 334.25 415.39C332.21 420.42 331.15 423.31 329.62 428.02C328.94 430.11 328.2 432.26 327.98 432.8C327.33 434.37 325.89 435.98 324.35 436.85C323.15 437.53 322.61 437.68 321.08 437.76C319.47 437.83 318.94 437.74 316.91 437.01Z"/>
<path fill="#35cdfd" d="M287.84 660.68C285.28 659.41 283.82 657.33 283.32 654.17C283.16 653.19 283.06 647.04 283.06 638.3C283.06 624.6 283.08 623.97 283.55 622.7C284.24 620.86 285.43 619.58 287.37 618.59L289.03 617.75L295.06 617.59C298.37 617.49 303.07 617.39 305.5 617.36C309.89 617.29 309.92 617.29 311.22 617.96C313.16 618.95 314.58 620.39 315.55 622.34L316.42 624.07L316.42 633.42C316.42 638.56 316.56 644.7 316.72 647.06C317.17 653.64 317.14 654.26 316.25 656.17C315.32 658.14 313.86 659.66 312.16 660.43C310.92 660.99 310.72 661 299.98 661.14L289.07 661.28L287.84 660.68ZM239.15 660.59C236.91 659.76 235.64 658.59 234.69 656.46C234.01 654.95 234.01 654.68 234.57 638.03C234.9 628.14 235.1 624.45 235.36 623.72C236.03 621.82 237.69 620 239.76 618.91L240.99 618.26L251.45 618.32C260.7 618.38 262.05 618.44 263.04 618.82C265.03 619.57 266.29 620.65 267.15 622.33C268.16 624.32 268.17 624.53 267.91 641.17C267.7 654.14 267.69 654.31 267.12 655.76C266.71 656.82 266.12 657.66 265.05 658.73C262.68 661.09 262.98 661.04 250.7 661.02C241.6 661 240.11 660.94 239.15 660.59ZM339.82 656.52C337.47 655.95 335.91 654.61 334.68 652.09C334.14 650.98 333.93 650.06 333.68 647.59C333.33 644.25 332.92 641.71 331.21 632.34C330.61 629.03 329.94 625.39 329.74 624.25C329 620.17 329.72 617.48 332.1 615.35C333.78 613.86 335.25 613.31 339.47 612.6C341.56 612.25 345.21 611.56 347.57 611.07C350.57 610.44 352.52 610.17 354.07 610.16C356.07 610.14 356.4 610.21 357.59 610.87C359.76 612.07 361.61 614.66 361.93 616.93C362.09 618.08 362.6 620.76 363.79 626.7C364.21 628.79 364.7 631.33 364.87 632.34C365.04 633.35 365.35 634.9 365.56 635.77C367.78 645.26 367.82 645.85 366.48 648.67C365.58 650.56 364.06 652.07 362.53 652.58C361.87 652.79 360.19 653.19 358.8 653.45C357.41 653.71 355.28 654.13 354.07 654.39C352.85 654.65 351.03 655.03 350.02 655.24C349.01 655.45 346.97 655.9 345.48 656.24C342.5 656.93 341.66 656.97 339.82 656.52ZM389.72 643.54C388.1 642.94 386.56 641.89 385.85 640.92C385.05 639.81 384.98 639.63 383.62 635.41C383.05 633.65 381.78 630.18 380.79 627.68C379.8 625.18 378.84 622.7 378.65 622.16C378.45 621.62 377.51 619.03 376.55 616.4C374.99 612.17 374.79 611.43 374.79 609.9C374.79 608.52 374.92 607.93 375.43 606.95C376.55 604.82 378.56 603.11 380.76 602.43C381.19 602.3 382.48 601.85 383.62 601.43C384.77 601.02 386.09 600.56 386.57 600.42C387.04 600.27 387.53 600.07 387.67 599.97C387.8 599.86 388.19 599.7 388.53 599.6C389.55 599.32 391.7 598.48 394.29 597.37C397.36 596.05 398.81 595.83 400.58 596.42C403.21 597.29 404.69 598.65 405.68 601.13C406 601.9 407.62 605.68 409.3 609.53C410.98 613.37 412.64 617.18 412.99 617.99C413.33 618.8 414.32 620.98 415.19 622.85C417.6 628.03 417.72 630.07 415.82 633.28C414.61 635.33 413.26 636.2 408.76 637.83C405.26 639.11 404.04 639.58 402.39 640.29C401.98 640.47 400.99 640.87 400.18 641.18C399.37 641.49 397.71 642.18 396.5 642.71C393.96 643.82 391.33 644.14 389.72 643.54ZM435.99 620.47C434.32 619.68 433.24 618.59 431.82 616.27C431.16 615.19 430.16 613.7 429.6 612.96C429.05 612.22 427.67 610.23 426.54 608.55C424.07 604.85 420.13 599.3 418.16 596.76C416.5 594.61 416.24 593.89 416.25 591.38C416.26 587.76 417.36 586.41 423.36 582.67C423.97 582.29 426.29 580.57 428.52 578.85C435.16 573.72 435.7 573.46 438.61 573.94C440.92 574.33 441.51 574.86 446.22 580.74C448.51 583.61 453.66 589.84 455.31 591.76C462.1 599.62 462.52 600.44 461.4 603.69C460.48 606.39 459.02 608.22 456.45 609.91C455.03 610.84 452.62 612.62 444.82 618.53C441.84 620.78 441.22 621.06 439.06 621.05C437.63 621.05 436.94 620.92 435.99 620.47ZM475.48 586.04C474.66 585.71 468.86 581.9 460.52 576.22C459.57 575.58 458.25 574.71 457.58 574.3C452.77 571.33 449.86 569.4 449.17 568.74C448.23 567.84 447.64 566.11 447.64 564.26C447.64 562.33 448.14 561.35 451.16 557.35C452.46 555.62 453.52 553.96 455.24 550.91C456.97 547.85 457.72 546.92 459.09 546.11C460.68 545.18 462.61 545.18 464.93 546.11C466.76 546.84 472.86 549.64 473.27 549.93C473.47 550.07 477.11 551.68 479.9 552.86C480.17 552.98 480.88 553.29 481.49 553.56C482.1 553.83 483.92 554.62 485.54 555.31C491.79 557.99 492.27 558.3 493.28 560.38C494.43 562.76 494.12 565.81 492.46 568.38C492 569.09 490.71 571.22 489.59 573.1C488.47 574.99 487.2 577.09 486.76 577.76C486.32 578.44 485.39 580.06 484.69 581.37C483.28 584.01 482.34 584.98 480.33 585.87C478.74 586.58 476.94 586.64 475.48 586.04ZM601.92 578.38C596.04 577.79 594.35 577.58 593.49 577.36C592.96 577.22 591.69 576.97 590.66 576.79C578.82 574.76 567.93 569.39 560.51 561.92C555.25 556.63 551.98 551.12 549.98 544.16C548.43 538.77 547.75 534.83 548.22 533.96C548.52 533.4 549.63 533.3 557.9 533.01C561.81 532.87 567.22 532.59 569.92 532.4C572.61 532.2 576.53 532 578.62 531.97L582.42 531.9L583.12 534.1C584.76 539.29 586 541.63 588.33 543.92C591.71 547.25 596.25 549.49 602.29 550.8C603.66 551.1 605.79 551.26 609.3 551.34C613.63 551.43 614.81 551.37 617.64 550.92C621.61 550.28 624.05 549.54 627.06 548.07C629.81 546.72 632.18 544.82 633.41 542.97C634.92 540.69 635.13 539.88 635.15 536.31C635.16 533.21 635.14 533.08 634.36 531.43C632.53 527.58 628.1 524.57 621.67 522.82C621 522.64 620.06 522.38 619.58 522.25C617.84 521.78 614.23 520.99 611.49 520.49C609.94 520.2 607.84 519.8 606.83 519.6C605.82 519.4 604.27 519.13 603.4 519C602.52 518.86 601.14 518.6 600.33 518.4C598.94 518.07 597.02 517.67 593.34 516.94C590.04 516.28 583.59 514.52 580.83 513.51C577.81 512.4 576.67 511.91 573.59 510.4C568.3 507.78 565.34 505.76 562.29 502.7C556.17 496.53 553.01 489.83 552.35 481.57C551.94 476.53 552.57 471.2 554.12 466.41C554.65 464.78 554.69 464.69 555.83 462.24C560.02 453.25 568.97 445.34 579.99 440.9C583.87 439.33 584.84 439.05 592.73 437.21C593.54 437.02 594.75 436.8 595.42 436.72C596.1 436.64 597.75 436.4 599.1 436.18C601.02 435.86 603.31 435.77 609.53 435.77C616.99 435.77 617.78 435.81 621.86 436.44C624.25 436.81 626.46 437.2 626.76 437.31C627.06 437.43 627.86 437.6 628.54 437.7C632.02 438.2 638.55 440.53 643.73 443.13C655.8 449.17 664.82 461.61 666.09 473.94C666.25 475.52 666.23 475.59 665.67 475.83C664.73 476.21 662.16 476.55 658.09 476.82C656 476.96 653.57 477.18 652.7 477.31C651.82 477.43 650 477.6 648.65 477.68C647.3 477.76 644.6 477.99 642.64 478.18C637.53 478.68 634.38 478.78 633.93 478.45C633.72 478.3 633.38 477.52 633.17 476.72C631.74 471.25 627.79 467.12 621.67 464.7C618.59 463.48 615.88 462.95 610.38 462.48C608.14 462.3 601.56 462.97 599.35 463.61C593.46 465.33 589.92 467.96 588.18 471.92C587.69 473.05 587.59 473.66 587.61 475.6C587.62 477.69 587.7 478.11 588.4 479.62C589.48 481.97 591.58 483.98 594.36 485.35C597.21 486.76 599.94 487.6 606.28 489.05C607.53 489.34 609.52 489.79 610.69 490.07C611.87 490.34 613.45 490.66 614.19 490.79C616.34 491.15 621.1 492.11 625.23 493.02C626.37 493.28 627.86 493.6 628.54 493.74C630.74 494.21 638.42 496.42 639.94 497.03C640.42 497.22 641.46 497.62 642.27 497.92C651.75 501.41 658.59 506.11 663.2 512.27C665.89 515.88 668.17 521.17 669.18 526.18C669.66 528.55 669.74 529.68 669.73 533.98C669.72 538.21 669.63 539.46 669.15 541.83C668.02 547.5 665.86 552.62 662.83 556.84C660.26 560.42 656.08 564.52 652.33 567.13C650.13 568.67 645.02 571.46 642.52 572.5C642.25 572.61 641.48 572.94 640.8 573.23C635.88 575.32 627.32 577.31 620.08 578.05C615.9 578.47 604.83 578.68 601.92 578.38ZM890.47 575.21C888.96 575.03 888.5 574.68 888.18 573.49C887.89 572.44 888 441.64 888.28 440.97C888.38 440.74 888.64 440.49 888.87 440.42C889.09 440.36 897.31 440.26 907.13 440.22C920.46 440.16 925.17 440.22 925.68 440.43C926.08 440.6 926.85 441.43 927.51 442.4C928.14 443.33 929.59 445.41 930.72 447.03C931.85 448.65 933.43 450.91 934.22 452.06C935.01 453.2 936.65 455.58 937.87 457.33C941.6 462.72 946.27 469.53 950.65 475.97C952.12 478.13 954.48 481.61 955.91 483.7C957.33 485.79 958.84 488 959.27 488.6C959.7 489.21 961.02 491.14 962.2 492.9C963.39 494.65 964.79 496.69 965.31 497.43C966.83 499.59 970.27 504.66 972.37 507.86C975.42 512.47 978.67 517.24 980.5 519.75C981.13 520.63 982.11 522.04 982.66 522.88C983.9 524.76 984.66 524.97 984.9 523.5C984.98 522.99 985.05 504.24 985.05 481.84C985.06 443.35 985.08 441.07 985.49 440.71C985.86 440.38 987.83 440.32 1001.37 440.25C1009.87 440.21 1017.07 440.26 1017.37 440.37C1017.68 440.47 1018.03 440.75 1018.15 440.99C1018.44 441.53 1018.48 571.15 1018.19 572.98C1017.81 575.38 1019.5 575.19 998.66 575.19L980.42 575.19L979.82 574.64C979.49 574.33 977.55 571.6 975.5 568.57C973.46 565.53 970.9 561.78 969.82 560.23C968.74 558.68 966.05 554.7 963.83 551.4C961.62 548.09 958.51 543.48 956.92 541.16C955.33 538.83 952.55 534.74 950.74 532.08C948.93 529.42 946.43 525.75 945.19 523.92C943.95 522.1 941.71 518.79 940.21 516.57C938.71 514.34 936.94 511.75 936.28 510.8C935.63 509.86 934.17 507.71 933.06 506.02C930.29 501.85 927.09 497.18 925.57 495.1C924.88 494.16 924 492.86 923.63 492.22C922.8 490.79 922.53 490.61 922.1 491.19C921.83 491.56 921.77 498.62 921.77 532.54C921.77 562.42 921.7 573.61 921.5 574.06C921.34 574.39 920.93 574.77 920.58 574.91C919.85 575.18 892.49 575.46 890.47 575.21ZM693.4 574.48L692.68 573.75L692.68 507.42C692.68 443.14 692.69 441.08 693.13 440.68C693.55 440.3 695.97 440.27 725.45 440.27C763.44 440.26 765.96 440.37 773.67 442.37C778.54 443.64 778.42 443.6 781.96 445.06C795.24 450.54 804.25 461.15 806.73 474.22C809.63 489.58 805.71 504.38 796.16 514.04C793.33 516.9 791.27 518.6 788.71 520.19C781.95 524.37 776.36 526.34 766.51 528L762.71 528.65L744.8 528.7C734.94 528.74 726.65 528.84 726.37 528.93C726.07 529.02 725.8 529.37 725.72 529.76C725.64 530.12 725.58 536.77 725.57 544.53C725.56 552.29 725.48 562.09 725.39 566.32C725.24 573.13 725.18 574.06 724.79 574.53L724.36 575.07L709.24 575.13L694.12 575.2L693.4 574.48ZM828.18 574.58L827.58 573.98L827.64 507.51C827.7 445.95 827.74 441.01 828.11 440.63C828.49 440.26 829.9 440.22 844.11 440.23C852.68 440.24 859.92 440.32 860.2 440.4C860.47 440.49 860.82 440.78 860.96 441.05C861.14 441.39 861.21 461.15 861.17 507.32C861.11 577.1 861.16 574.3 860 574.92C859.66 575.11 854.68 575.19 844.15 575.19L828.79 575.19L828.18 574.58ZM1047.43 574.94C1047.14 574.82 1046.72 574.39 1046.51 573.99C1046.17 573.33 1046.13 566.46 1046.13 507.61C1046.13 437.82 1046.08 440.88 1047.19 440.46C1047.46 440.35 1147.96 440.16 1149.7 440.26C1149.94 440.27 1150.35 440.5 1150.62 440.77C1151.1 441.25 1151.11 441.59 1151.11 453.74C1151.11 465.56 1151.09 466.23 1150.66 466.62C1150.24 467 1147.62 467.03 1115.48 467.04C1081 467.04 1080.75 467.05 1080.12 467.54L1079.49 468.04L1079.49 479.75C1079.49 490.79 1079.52 491.49 1079.94 491.88C1080.35 492.25 1082.86 492.28 1111.05 492.28C1140.62 492.28 1141.73 492.3 1142.13 492.74C1142.51 493.16 1142.54 494.28 1142.47 505.88C1142.41 518.15 1142.39 518.58 1141.93 518.92C1141.52 519.22 1137.02 519.27 1110.99 519.26C1094.24 519.26 1080.36 519.32 1080.14 519.41C1079.28 519.74 1079.19 521.24 1079.28 534.15C1079.36 545.82 1079.4 546.75 1079.81 547.16C1080.22 547.57 1082.01 547.59 1116.19 547.59C1150.09 547.59 1152.15 547.62 1152.45 548.02C1152.96 548.72 1153.06 551.68 1152.95 562.99C1152.88 570.01 1152.75 573.9 1152.57 574.23C1152.43 574.5 1152.03 574.83 1151.7 574.96C1150.9 575.26 1048.18 575.24 1047.43 574.94ZM492.9 541.59C491.14 541.48 488.82 541.28 487.75 541.13C486.67 540.99 484.9 540.8 483.82 540.72C482.74 540.64 480.2 540.36 478.18 540.11C476.16 539.86 473.07 539.58 471.31 539.49C467.44 539.28 465.98 538.82 464.68 537.38C463.06 535.58 463.06 535.58 463.08 526.29L463.09 517.92L463.77 516.58C464.19 515.75 464.92 514.86 465.7 514.22C466.82 513.31 467.14 513.18 468.64 513.03C469.57 512.94 472.04 512.7 474.13 512.5C476.22 512.3 479.7 511.92 481.86 511.66C484.02 511.4 487.05 511.06 488.6 510.92C490.16 510.77 492.09 510.56 492.9 510.44C495.73 510.03 497.69 510.14 499.03 510.77C500.52 511.48 501.9 512.88 502.57 514.36C503.04 515.41 503.06 515.94 503.07 525.82C503.07 534.95 503.03 536.3 502.66 537.23C502.08 538.72 501.31 539.65 499.83 540.67C498.27 541.74 497.39 541.85 492.9 541.59ZM460.52 506.72C458.61 505.71 458.3 505.34 456.78 502.3C455.07 498.86 453.55 496.51 451.66 494.34C450.1 492.57 449.6 491.31 449.6 489.18C449.6 485.8 450.04 485.34 459.51 478.8C459.79 478.6 461.5 477.33 463.29 475.98C465.09 474.63 466.85 473.3 467.22 473.03C467.58 472.76 469.17 471.52 470.76 470.28C475.32 466.71 477.71 465.8 480.29 466.66C481.74 467.14 483.77 468.97 484.51 470.45C485.19 471.82 488.96 477.89 491.29 481.37C493.72 485 494.25 486.29 494.25 488.64C494.25 490.78 493.48 492.58 492.07 493.79C491.5 494.28 489.55 495.33 487.64 496.17C485.77 497 482.27 498.66 479.86 499.85C477.45 501.05 474.65 502.39 473.64 502.83C472.63 503.27 471.69 503.71 471.56 503.81C471.42 503.91 469.64 504.73 467.61 505.62C463.42 507.46 462.24 507.64 460.52 506.72ZM746.76 501.53L757.56 501.46L760.25 500.78C766.22 499.28 771.05 495.63 772.62 491.44C774.94 485.23 773.93 478.22 770.1 473.99C766.95 470.51 762.2 468.36 756.35 467.78C754.77 467.62 748.08 467.51 740.1 467.51C726.86 467.51 726.52 467.52 726.04 468C725.57 468.47 725.55 468.82 725.55 476.03C725.55 480.17 725.52 487.43 725.49 492.16C725.46 496.88 725.53 500.89 725.64 501.07C726.01 501.66 726.69 501.73 731.36 501.67C733.89 501.63 740.83 501.57 746.76 501.53ZM438.38 481.67C437.52 481.21 434.16 479.25 431.74 477.78C430.27 476.9 428.99 476.2 426.55 474.93C423.37 473.28 421.86 471.85 421.3 469.96C420.53 467.38 420.76 466.57 423.23 462.97C424.13 461.66 425.7 459.14 426.72 457.37C427.74 455.59 429.53 452.54 430.7 450.58C431.88 448.63 433.6 445.66 434.54 444C436.45 440.57 437.5 439.36 439.31 438.44C441.98 437.09 444.42 437.46 447.64 439.71C451.02 442.06 456.32 445.58 458.54 446.92C459.74 447.66 461.15 448.67 461.67 449.18C463.06 450.55 463.87 452.52 463.89 454.64C463.92 457.14 464.27 456.62 455.13 467.51C453.82 469.06 451.05 472.51 448.96 475.17C446.87 477.83 444.76 480.34 444.27 480.74C442.46 482.23 440.11 482.6 438.38 481.67ZM402.39 464.68C400.21 463.97 398.43 463.34 393.86 461.66C393.15 461.4 391.97 460.97 391.23 460.7C387.45 459.33 386.69 458.99 385.87 458.28C384.48 457.1 383.79 455.49 383.67 453.12C383.59 451.58 383.66 450.93 383.98 450.3C384.2 449.85 384.64 448.82 384.95 448.01C386.45 444.1 387.05 442.49 387.52 441.14C387.8 440.33 388.31 438.9 388.66 437.95C389.01 437.01 389.45 435.79 389.64 435.25C389.83 434.72 390.27 433.5 390.62 432.56C390.97 431.61 391.37 430.45 391.5 429.98C391.63 429.51 391.89 428.74 392.08 428.26C392.26 427.79 392.61 426.74 392.85 425.93C393.17 424.88 393.61 424.12 394.4 423.27C396.93 420.56 399.53 420.15 404.1 421.73C405.59 422.25 407.52 422.94 408.4 423.28C409.27 423.62 410.54 424.1 411.22 424.35C412.57 424.86 417.24 426.34 418.9 426.78C420.38 427.18 421.91 428.67 422.77 430.53C423.34 431.77 423.47 432.39 423.46 433.78C423.44 435.34 423.31 435.79 422.03 438.57C421.25 440.25 419.28 444.89 417.65 448.87C412.95 460.36 412.89 460.51 412.37 461.52C411.28 463.64 408.84 465.08 406.1 465.22C404.71 465.3 403.95 465.19 402.39 464.68ZM363.14 451.72C361.78 451.24 356.16 449.51 353.94 448.88C352.93 448.6 351.39 448.15 350.51 447.89C349.63 447.63 348.44 447.3 347.87 447.15C344.17 446.21 341.9 443.95 341.21 440.53C340.91 439.04 341.07 438.23 342.29 435.01C343.97 430.57 345.68 425.4 348.83 415.26C350.31 410.51 351.07 409.34 353.61 407.89C355.86 406.6 356.82 406.64 361.67 408.26C363.96 409.03 366.39 409.8 367.07 409.98C367.74 410.16 369.29 410.61 370.5 410.98C371.71 411.34 373.49 411.83 374.44 412.06C375.39 412.29 376.49 412.68 376.89 412.91C377.91 413.53 379.34 415.44 379.93 417C380.68 418.98 380.58 420.18 379.35 423.76C378.75 425.49 377.37 429.51 376.27 432.68C375.18 435.85 373.64 440.38 372.85 442.76C371.12 447.94 370.71 448.79 369.34 449.97C367.38 451.67 364.96 452.35 363.14 451.72Z"/>
</svg>
